<svg xmlns="http://www.w3.org/2000/svg" xmlns:xlink="http://www.w3.org/1999/xlink" width="277.219" height="405.204"
     viewBox="0 0 277.219 405.204">
  <defs>
    <filter id="Pfad_1" x="61.014" y="4.052" width="102.33" height="395.778" filterUnits="userSpaceOnUse">
      <feOffset dx="-7" dy="1" input="SourceAlpha"/>
      <feGaussianBlur result="blur"/>
      <feFlood flood-opacity="0.161"/>
      <feComposite operator="in" in2="blur"/>
      <feComposite in="SourceGraphic"/>
    </filter>
    <filter id="Pfad_2" x="120.874" y="0" width="156.344" height="405.204" filterUnits="userSpaceOnUse">
      <feOffset dx="-7" dy="1" input="SourceAlpha"/>
      <feGaussianBlur result="blur-2"/>
      <feFlood flood-opacity="0.161"/>
      <feComposite operator="in" in2="blur-2"/>
      <feComposite in="SourceGraphic"/>
    </filter>
    <filter id="Pfad_3" x="0" y="71.192" width="272.709" height="99.861" filterUnits="userSpaceOnUse">
      <feOffset dx="-4" dy="5" input="SourceAlpha"/>
      <feGaussianBlur result="blur-3"/>
      <feFlood flood-opacity="0.161"/>
      <feComposite operator="in" in2="blur-3"/>
      <feComposite in="SourceGraphic"/>
    </filter>
    <filter id="Pfad_4" x="11.297" y="141.904" width="264.269" height="136.766" filterUnits="userSpaceOnUse">
      <feOffset dx="-6" dy="10" input="SourceAlpha"/>
      <feGaussianBlur result="blur-4"/>
      <feFlood flood-opacity="0.161"/>
      <feComposite operator="in" in2="blur-4"/>
      <feComposite in="SourceGraphic"/>
    </filter>
    <filter id="Ellipse_1" x="109.392" y="47.117" width="106" height="143" filterUnits="userSpaceOnUse">
      <feOffset dx="-10" dy="-8" input="SourceAlpha"/>
      <feGaussianBlur result="blur-5"/>
      <feFlood flood-opacity="0.161"/>
      <feComposite operator="in" in2="blur-5"/>
    </filter>
    <filter id="Ellipse_1-2" x="109.392" y="47.117" width="106" height="143" filterUnits="userSpaceOnUse">
      <feOffset dx="-10" dy="-20" input="SourceAlpha"/>
      <feGaussianBlur result="blur-6"/>
      <feFlood flood-opacity="0.161" result="color"/>
      <feComposite operator="out" in="SourceGraphic" in2="blur-6"/>
      <feComposite operator="in" in="color"/>
      <feComposite operator="in" in2="SourceGraphic"/>
    </filter>
    <filter id="Ellipse_6" x="39.392" y="60.117" width="106" height="143" filterUnits="userSpaceOnUse">
      <feOffset dx="-10" dy="-8" input="SourceAlpha"/>
      <feGaussianBlur result="blur-7"/>
      <feFlood flood-opacity="0.161"/>
      <feComposite operator="in" in2="blur-7"/>
    </filter>
    <filter id="Ellipse_6-2" x="39.392" y="60.117" width="106" height="143" filterUnits="userSpaceOnUse">
      <feOffset dx="-2" dy="-25" input="SourceAlpha"/>
      <feGaussianBlur result="blur-8"/>
      <feFlood flood-opacity="0.161" result="color-2"/>
      <feComposite operator="out" in="SourceGraphic" in2="blur-8"/>
      <feComposite operator="in" in="color-2"/>
      <feComposite operator="in" in2="SourceGraphic"/>
    </filter>
    <filter id="Ellipse_4" x="142.218" y="75.109" width="60.046" height="71.644" filterUnits="userSpaceOnUse">
      <feOffset dx="-3" dy="5" input="SourceAlpha"/>
      <feGaussianBlur result="blur-9"/>
      <feFlood flood-opacity="0.161"/>
      <feComposite operator="in" in2="blur-9"/>
      <feComposite in="SourceGraphic"/>
    </filter>
    <filter id="Pfad_7" x="71.779" y="88.554" width="60.152" height="73.126" filterUnits="userSpaceOnUse">
      <feOffset dx="-3" dy="5" input="SourceAlpha"/>
      <feGaussianBlur result="blur-10"/>
      <feFlood flood-opacity="0.161"/>
      <feComposite operator="in" in2="blur-10"/>
      <feComposite in="SourceGraphic"/>
    </filter>
    <filter id="Pfad_5" x="95.133" y="102.679" width="24.645" height="28.676" filterUnits="userSpaceOnUse">
      <feOffset dx="-3" dy="5" input="SourceAlpha"/>
      <feGaussianBlur result="blur-11"/>
      <feFlood flood-opacity="0.161"/>
      <feComposite operator="in" in2="blur-11"/>
      <feComposite in="SourceGraphic"/>
    </filter>
    <filter id="Pfad_8" x="164.711" y="87.99" width="25.966" height="31.048" filterUnits="userSpaceOnUse">
      <feOffset dx="-3" dy="5" input="SourceAlpha"/>
      <feGaussianBlur result="blur-12"/>
      <feFlood flood-opacity="0.161"/>
      <feComposite operator="in" in2="blur-12"/>
      <feComposite in="SourceGraphic"/>
    </filter>
    <filter id="Pfad_9" x="108.822" y="174.583" width="53.691" height="38.594" filterUnits="userSpaceOnUse">
      <feOffset dx="-4" dy="5" input="SourceAlpha"/>
      <feGaussianBlur result="blur-13"/>
      <feFlood flood-opacity="0.161"/>
      <feComposite operator="in" in2="blur-13"/>
      <feComposite in="SourceGraphic"/>
    </filter>
  </defs>
  <g transform="matrix(1, 0, 0, 1, 0, 0)" filter="url(#Pfad_1)">
    <path id="Pfad_1-2" data-name="Pfad 1" d="M368.539,473.3C291.7,262.648,351.1,142.766,351.1,142.766"
          transform="translate(-236.61 -105.88)" fill="none" stroke="#7b1ea2" stroke-linecap="round" stroke-width="49"/>
  </g>
  <g transform="matrix(1, 0, 0, 1, 0, 0)" filter="url(#Pfad_2)">
    <path id="Pfad_2-2" data-name="Pfad 2" d="M368.539,473.3C291.7,262.648,351.1,142.766,351.1,142.766"
          transform="translate(-189.08 -53.2) rotate(-8)" fill="#fff" stroke="#7b1ea2" stroke-linecap="round"
          stroke-width="49"/>
  </g>
  <g transform="matrix(1, 0, 0, 1, 0, 0)" filter="url(#Pfad_3)">
    <path id="Pfad_3-2" data-name="Pfad 3" d="M350.429,343.62c-41.473-128.006-9.411-200.855-9.411-200.855"
          transform="translate(356.31 -240.43) rotate(86)" fill="none" stroke="#7b1ea2" stroke-linecap="round"
          stroke-width="49"/>
  </g>
  <g transform="matrix(1, 0, 0, 1, 0, 0)" filter="url(#Pfad_4)">
    <path id="Pfad_4-2" data-name="Pfad 4" d="M350.351,326.509c-41.32-117.1-9.377-183.743-9.377-183.743"
          transform="translate(303.9 -178.98) rotate(78)" fill="none" stroke="#7b1ea2" stroke-linecap="round"
          stroke-width="49"/>
  </g>
  <g data-type="innerShadowGroup">
    <g transform="matrix(1, 0, 0, 1, 0, 0)" filter="url(#Ellipse_1)">
      <g id="Ellipse_1-3" data-name="Ellipse 1" transform="translate(119.39 55.12)" fill="#fff" stroke="#7b1ea2"
         stroke-width="13">
        <ellipse cx="48" cy="67.5" rx="48" ry="67.5" stroke="none"/>
        <ellipse cx="48" cy="67.5" rx="41.5" ry="61" fill="none"/>
      </g>
    </g>
    <ellipse id="Ellipse_1-4" data-name="Ellipse 1" cx="48" cy="67.5" rx="48" ry="67.5"
             transform="translate(119.392 55.117)" fill="#fff"/>
    <g transform="matrix(1, 0, 0, 1, 0, 0)" filter="url(#Ellipse_1-2)">
      <ellipse id="Ellipse_1-5" data-name="Ellipse 1" cx="48" cy="67.5" rx="48" ry="67.5"
               transform="translate(119.39 55.12)" fill="#fff"/>
    </g>
    <g id="Ellipse_1-6" data-name="Ellipse 1" transform="translate(119.392 55.117)" fill="none" stroke="#7b1ea2"
       stroke-width="13">
      <ellipse cx="48" cy="67.5" rx="48" ry="67.5" stroke="none"/>
      <ellipse cx="48" cy="67.5" rx="41.5" ry="61" fill="none"/>
    </g>
  </g>
  <g data-type="innerShadowGroup">
    <g transform="matrix(1, 0, 0, 1, 0, 0)" filter="url(#Ellipse_6)">
      <g id="Ellipse_6-3" data-name="Ellipse 6" transform="translate(49.39 68.12)" fill="#fff" stroke="#7b1ea2"
         stroke-width="13">
        <ellipse cx="48" cy="67.5" rx="48" ry="67.5" stroke="none"/>
        <ellipse cx="48" cy="67.5" rx="41.5" ry="61" fill="none"/>
      </g>
    </g>
    <ellipse id="Ellipse_6-4" data-name="Ellipse 6" cx="48" cy="67.5" rx="48" ry="67.5"
             transform="translate(49.392 68.117)" fill="#fff"/>
    <g transform="matrix(1, 0, 0, 1, 0, 0)" filter="url(#Ellipse_6-2)">
      <ellipse id="Ellipse_6-5" data-name="Ellipse 6" cx="48" cy="67.5" rx="48" ry="67.5"
               transform="translate(49.39 68.12)" fill="#fff"/>
    </g>
    <g id="Ellipse_6-6" data-name="Ellipse 6" transform="translate(49.392 68.117)" fill="none" stroke="#7b1ea2"
       stroke-width="13">
      <ellipse cx="48" cy="67.5" rx="48" ry="67.5" stroke="none"/>
      <ellipse cx="48" cy="67.5" rx="41.5" ry="61" fill="none"/>
    </g>
  </g>
  <g transform="matrix(1, 0, 0, 1, 0, 0)" filter="url(#Ellipse_4)">
    <ellipse id="Ellipse_4-2" data-name="Ellipse 4" cx="21.5" cy="28.5" rx="21.5" ry="28.5"
             transform="translate(145.22 86.96) rotate(-16)" fill="#7b1ea2"/>
  </g>
  <g transform="matrix(1, 0, 0, 1, 0, 0)" filter="url(#Pfad_7)">
    <path id="Pfad_7-2" data-name="Pfad 7"
          d="M22.1.311C34.286.486,44.326,13.881,44.524,30.23S35,59.689,22.815,59.514.588,45.943.39,29.595,9.912.136,22.1.311Z"
          transform="translate(74.33 99.03) rotate(-14)" fill="#7b1ea2"/>
  </g>
  <g transform="matrix(1, 0, 0, 1, 0, 0)" filter="url(#Pfad_5)">
    <path id="Pfad_5-2" data-name="Pfad 5" d="M0,0S2.969-.18,7.737,10.164"
          transform="matrix(1, -0.03, 0.03, 1, 104.14, 108.7)" fill="none" stroke="#fff" stroke-linecap="round"
          stroke-width="11"/>
  </g>
  <g transform="matrix(1, 0, 0, 1, 0, 0)" filter="url(#Pfad_8)">
    <path id="Pfad_8-2" data-name="Pfad 8" d="M0,0S3.461-.222,9.018,12.553"
          transform="matrix(1, -0.03, 0.03, 1, 173.74, 94.06)" fill="none" stroke="#fff" stroke-linecap="round"
          stroke-width="11"/>
  </g>
  <g transform="matrix(1, 0, 0, 1, 0, 0)" filter="url(#Pfad_9)">
    <path id="Pfad_9-2" data-name="Pfad 9" d="M342.295,170.384c-25.585-17.6-5.806-27.619-5.806-27.619"
          transform="translate(-36.51 519.88) rotate(-87)" fill="none" stroke="#fff" stroke-linecap="round"
          stroke-width="15"/>
  </g>
</svg>
